<?xml version="1.0" encoding="utf-8"?>
<!-- Generator: Adobe Illustrator 15.0.0, SVG Export Plug-In . SVG Version: 6.00 Build 0)  -->
<!DOCTYPE svg PUBLIC "-//W3C//DTD SVG 1.1//EN" "http://www.w3.org/Graphics/SVG/1.1/DTD/svg11.dtd">
<svg version="1.1" id="Warstwa_1" xmlns="http://www.w3.org/2000/svg" xmlns:xlink="http://www.w3.org/1999/xlink" x="0px" y="0px"
	 width="538.583px" height="538.584px" viewBox="0 0 538.583 538.584" enable-background="new 0 0 538.583 538.584"
	 xml:space="preserve">
<g id="Warstwa_1_1_">
	<path fill="none" stroke="#000000" stroke-linecap="round" stroke-linejoin="round" stroke-miterlimit="10" d="M263.787,499.682
		v13.602 M263.787,474.784v13.601 M263.787,449.784v13.601 M263.787,424.884v13.602 M263.787,399.883v13.603 M263.787,374.983v13.6
		 M263.787,349.983v13.6 M263.787,325.083v13.601 M263.787,300.083v13.601 M263.787,275.183v13.601 M263.787,250.283v13.6
		 M263.787,225.283v13.6 M263.787,200.383v13.601 M263.787,175.383v13.601 M263.787,150.483v13.6 M263.787,125.483v13.6
		 M263.787,100.583v13.601 M263.787,75.583v13.601 M263.787,50.683v13.6 M263.787,25.683v13.699 M275.086,499.682v13.602
		 M275.086,474.784v13.601 M275.086,449.784v13.601 M275.086,424.884v13.602 M275.086,399.883v13.603 M275.086,374.983v13.6
		 M275.086,349.983v13.6 M275.086,325.083v13.601 M275.086,300.083v13.601 M275.086,275.183v13.601 M275.086,250.283v13.6
		 M275.086,225.283v13.6 M275.086,200.383v13.601 M275.086,175.383v13.601 M275.086,150.483v13.6 M275.086,125.483v13.6
		 M275.086,100.583v13.601 M275.086,75.583v13.601 M275.086,50.683v13.6 M275.086,25.683v13.699 M385.686,499.682v13.602
		 M385.686,474.784v13.601 M385.686,449.784v13.601 M385.686,424.884v13.602 M385.686,399.883v13.603 M385.686,374.983v13.6
		 M385.686,349.983v13.6 M385.686,325.083v13.601 M385.686,300.083v13.601 M385.686,275.183v13.601 M385.686,250.283v13.6
		 M385.686,225.283v13.6 M385.686,200.383v13.601 M385.686,175.383v13.601 M385.686,150.483v13.6 M385.686,125.483v13.6
		 M385.686,100.583v13.601 M385.686,75.583v13.601 M385.686,50.683v13.6 M385.686,25.683v13.699 M396.987,499.682v13.602
		 M396.987,474.784v13.601 M396.987,449.784v13.601 M396.987,424.884v13.602 M396.987,399.883v13.603 M396.987,374.983v13.6
		 M396.987,349.983v13.6 M396.987,325.083v13.601 M396.987,300.083v13.601 M396.987,275.183v13.601 M396.987,250.283v13.6
		 M396.987,225.283v13.6 M396.987,200.383v13.601 M396.987,175.383v13.601 M396.987,150.483v13.6 M396.987,125.483v13.6
		 M396.987,100.583v13.601 M396.987,75.583v13.601 M396.987,50.683v13.6 M396.987,25.683v13.699 M141.887,499.682v13.602
		 M141.887,474.784v13.601 M141.887,449.784v13.601 M141.887,424.884v13.602 M141.887,399.883v13.603 M141.887,374.983v13.6
		 M141.887,349.983v13.6 M141.887,325.083v13.601 M141.887,300.083v13.601 M141.887,275.183v13.601 M141.887,250.283v13.6
		 M141.887,225.283v13.6 M141.887,200.383v13.601 M141.887,175.383v13.601 M141.887,150.483v13.6 M141.887,125.483v13.6
		 M141.887,100.583v13.601 M141.887,75.583v13.601 M141.887,50.683v13.6 M141.887,25.683v13.699 M153.287,499.682v13.602
		 M153.287,474.784v13.601 M153.287,449.784v13.601 M153.287,424.884v13.602 M153.287,399.883v13.603 M153.287,374.983v13.6
		 M153.287,349.983v13.6 M153.287,325.083v13.601 M153.287,300.083v13.601 M153.287,275.183v13.601 M153.287,250.283v13.6
		 M153.287,225.283v13.6 M153.287,200.383v13.601 M153.287,175.383v13.601 M153.287,150.483v13.6 M153.287,125.483v13.6
		 M153.287,100.583v13.601 M153.287,75.583v13.601 M153.287,50.683v13.6 M153.287,25.683v13.699 M396.987,513.284H141.886
		 M141.887,513.284v11.3 M396.987,524.584H141.886 M396.987,513.284v11.3 M141.887,488.384v11.299 M396.987,499.682H141.886
		 M396.987,488.384v11.299 M396.987,488.384H141.886 M141.887,288.784v11.299 M396.987,300.083H141.886 M396.987,288.784v11.299
		 M396.987,288.784H141.886 M396.987,463.384H141.886 M141.887,463.384v11.399 M396.987,474.784H141.886 M396.987,463.384v11.399
		 M396.987,338.682H141.886 M396.987,349.983H141.886 M141.887,338.682v11.303 M396.987,338.682v11.303 M396.987,363.583H141.886
		 M396.987,363.583v11.4 M141.887,363.583v11.4 M396.987,374.983H141.886 M396.987,438.483H141.886 M141.887,438.483v11.301
		 M396.987,449.784H141.886 M396.987,438.483v11.301 M396.987,388.583H141.886 M396.987,399.883H141.886 M141.887,388.583v11.301
		 M396.987,388.583v11.301 M396.987,325.083H141.886 M396.987,313.682H141.886 M396.987,313.682v11.399 M141.887,313.682v11.399
		 M396.987,413.483H141.886 M396.987,424.884H141.886 M396.987,413.483v11.398 M141.887,413.483v11.398 M396.987,89.183H141.886
		 M141.887,89.183v11.399 M396.987,100.583H141.886 M396.987,89.183v11.399 M141.887,64.283v11.3 M396.987,75.583H141.886
		 M396.987,64.283v11.3 M396.987,64.283H141.886 M141.887,39.383v11.301 M396.987,50.683H141.886 M396.987,39.383v11.301
		 M396.987,39.383H141.886 M396.987,14.383v11.301 M141.887,14.383v11.301 M396.987,25.683H141.886 M396.987,14.383H141.886
		 M396.987,213.983H141.886 M396.987,213.983v11.3 M141.887,213.983v11.3 M396.987,225.283H141.886 M396.987,164.083H141.886
		 M141.887,164.083v11.3 M396.987,175.383H141.886 M396.987,164.083v11.3 M396.987,114.183H141.886 M141.887,114.183v11.3
		 M396.987,125.483H141.886 M396.987,114.183v11.3 M396.987,139.083H141.886 M396.987,139.083v11.4 M141.887,139.083v11.4
		 M396.987,150.483H141.886 M396.987,188.983H141.886 M141.887,188.983v11.399 M396.987,200.383H141.886 M396.987,188.983v11.399
		 M396.987,238.883H141.886 M396.987,250.283H141.886 M396.987,238.883v11.4 M141.887,238.883v11.4 M396.987,263.883H141.886
		 M141.887,263.883v11.301 M396.987,275.183H141.886 M396.987,263.883v11.301"/>
</g>
</svg>
