<?xml version="1.0" encoding="utf-8"?>
<!-- Generator: Adobe Illustrator 15.0.0, SVG Export Plug-In . SVG Version: 6.00 Build 0)  -->
<!DOCTYPE svg PUBLIC "-//W3C//DTD SVG 1.1//EN" "http://www.w3.org/Graphics/SVG/1.1/DTD/svg11.dtd">
<svg version="1.1" id="Warstwa_1" xmlns="http://www.w3.org/2000/svg" xmlns:xlink="http://www.w3.org/1999/xlink" x="0px" y="0px"
	 width="538.583px" height="538.584px" viewBox="0 0 538.583 538.584" enable-background="new 0 0 538.583 538.584"
	 xml:space="preserve">
<g id="Warstwa_1_1_">
	<path fill="none" stroke="#000000" stroke-linecap="round" stroke-linejoin="round" stroke-miterlimit="10" d="M524.299,213.983
		v11.3 M524.299,213.983H14 M524.299,225.283H14 M14,213.983v11.3 M524.299,139.083H14 M524.299,139.083v11.4 M524.299,150.483H14
		 M14,139.083v11.4 M14,188.983v11.399 M524.299,200.383H14 M524.299,188.983v11.399 M524.299,188.983H14 M524.299,164.083H14
		 M524.299,164.083v11.3 M524.299,175.383H14 M14,164.083v11.3 M14,114.183v11.3 M524.299,125.483H14 M524.299,114.183v11.3
		 M524.299,114.183H14 M524.299,89.183H14 M14,89.183v11.399 M524.299,100.583H14 M524.299,89.183v11.399 M524.299,64.283H14
		 M524.299,64.283v11.3 M524.299,75.583H14 M14,64.283v11.3 M524.299,39.383H14 M14,39.383v11.301 M524.299,50.683H14
		 M524.299,39.383v11.301 M524.299,14.383v11.301 M524.299,14.383H14 M524.299,25.683H14 M14,14.383v11.301 M524.299,488.384v11.299
		 M14,488.384v11.299 M524.299,499.682H14 M524.299,488.384H14 M524.299,474.784H14 M524.299,463.384v11.399 M524.299,463.384H14
		 M14,463.384v11.399 M524.299,413.483H14 M524.299,424.884H14 M524.299,413.483v11.398 M14,413.483v11.398 M524.299,449.784H14
		 M14,438.483v11.301 M524.299,438.483v11.301 M524.299,438.483H14 M524.299,349.983H14 M524.299,338.682v11.303 M524.299,338.682
		H14 M14,338.682v11.303 M524.299,300.083H14 M524.299,288.784H14 M14,288.784v11.299 M524.299,288.784v11.299 M524.299,250.283H14
		 M524.299,238.883H14 M524.299,238.883v11.4 M14,238.883v11.4 M524.299,263.883v11.301 M524.299,275.183H14 M524.299,263.883H14
		 M14,263.883v11.301 M524.299,325.083H14 M524.299,313.682v11.399 M14,313.682v11.399 M524.299,313.682H14 M14,363.583v11.4
		 M524.299,374.983H14 M524.299,363.583v11.4 M524.299,363.583H14 M524.299,388.583v11.301 M524.299,399.883H14 M524.299,388.583H14
		 M14,388.583v11.301 M14,499.682v13.602 M14,474.784v13.601 M14,449.784v13.601 M14,424.884v13.602 M14,399.883v13.603 M14,374.983
		v13.6 M14,349.983v13.6 M14,325.083v13.601 M14,300.083v13.601 M14,275.183v13.601 M14,250.283v13.6 M14,225.283v13.6 M14,200.383
		v13.601 M14,175.383v13.601 M14,150.483v13.6 M14,125.483v13.6 M14,100.583v13.601 M14,75.583v13.601 M14,50.683v13.6 M14,25.683
		v13.699 M25.4,499.682v13.602 M25.4,474.784v13.601 M25.4,449.784v13.601 M25.4,424.884v13.602 M25.4,399.883v13.603 M25.4,374.983
		v13.6 M25.4,349.983v13.6 M25.4,325.083v13.601 M25.4,300.083v13.601 M25.4,275.183v13.601 M25.4,250.283v13.6 M25.4,225.283v13.6
		 M25.4,200.383v13.601 M25.4,175.383v13.601 M25.4,150.483v13.6 M25.4,125.483v13.6 M25.4,100.583v13.601 M25.4,75.583v13.601
		 M25.4,50.683v13.6 M25.4,25.683v13.699 M138.7,499.682v13.602 M138.7,474.784v13.601 M138.7,449.784v13.601 M138.7,424.884v13.602
		 M138.7,399.883v13.603 M138.7,374.983v13.6 M138.7,349.983v13.6 M138.7,325.083v13.601 M138.7,300.083v13.601 M138.7,275.183
		v13.601 M138.7,250.283v13.6 M138.7,225.283v13.6 M138.7,200.383v13.601 M138.7,175.383v13.601 M138.7,150.483v13.6 M138.7,125.483
		v13.6 M138.7,100.583v13.601 M138.7,75.583v13.601 M138.7,50.683v13.6 M138.7,25.683v13.699 M150.1,499.682v13.602 M150.1,474.784
		v13.601 M150.1,449.784v13.601 M150.1,424.884v13.602 M150.1,399.883v13.603 M150.1,374.983v13.6 M150.1,349.983v13.6
		 M150.1,325.083v13.601 M150.1,300.083v13.601 M150.1,275.183v13.601 M150.1,250.283v13.6 M150.1,225.283v13.6 M150.1,200.383
		v13.601 M150.1,175.383v13.601 M150.1,150.483v13.6 M150.1,125.483v13.6 M150.1,100.583v13.601 M150.1,75.583v13.601 M150.1,50.683
		v13.6 M150.1,25.683v13.699 M274.799,499.682v13.602 M274.799,474.784v13.601 M274.799,449.784v13.601 M274.799,424.884v13.602
		 M274.799,399.883v13.603 M274.799,374.983v13.6 M274.799,349.983v13.6 M274.799,325.083v13.601 M274.799,300.083v13.601
		 M274.799,275.183v13.601 M274.799,250.283v13.6 M274.799,225.283v13.6 M274.799,200.383v13.601 M274.799,175.383v13.601
		 M274.799,150.483v13.6 M274.799,125.483v13.6 M274.799,100.583v13.601 M274.799,75.583v13.601 M274.799,50.683v13.6
		 M274.799,25.683v13.699 M263.5,499.682v13.602 M263.5,474.784v13.601 M263.5,449.784v13.601 M263.5,424.884v13.602 M263.5,399.883
		v13.603 M263.5,374.983v13.6 M263.5,349.983v13.6 M263.5,325.083v13.601 M263.5,300.083v13.601 M263.5,275.183v13.601
		 M263.5,250.283v13.6 M263.5,225.283v13.6 M263.5,200.383v13.601 M263.5,175.383v13.601 M263.5,150.483v13.6 M263.5,125.483v13.6
		 M263.5,100.583v13.601 M263.5,75.583v13.601 M263.5,50.683v13.6 M263.5,25.683v13.699 M388.2,499.682v13.602 M388.2,474.784
		v13.601 M388.2,449.784v13.601 M388.2,424.884v13.602 M388.2,399.883v13.603 M388.2,374.983v13.6 M388.2,349.983v13.6
		 M388.2,325.083v13.601 M388.2,300.083v13.601 M388.2,275.183v13.601 M388.2,250.283v13.6 M388.2,225.283v13.6 M388.2,200.383
		v13.601 M388.2,175.383v13.601 M388.2,150.483v13.6 M388.2,125.483v13.6 M388.2,100.583v13.601 M388.2,75.583v13.601 M388.2,50.683
		v13.6 M388.2,25.683v13.699 M399.5,499.682v13.602 M399.5,474.784v13.601 M399.5,449.784v13.601 M399.5,424.884v13.602
		 M399.5,399.883v13.603 M399.5,374.983v13.6 M399.5,349.983v13.6 M399.5,325.083v13.601 M399.5,300.083v13.601 M399.5,275.183
		v13.601 M399.5,250.283v13.6 M399.5,225.283v13.6 M399.5,200.383v13.601 M399.5,175.383v13.601 M399.5,150.483v13.6 M399.5,125.483
		v13.6 M399.5,100.583v13.601 M399.5,75.583v13.601 M399.5,50.683v13.6 M399.5,25.683v13.699 M524.299,499.682v13.602
		 M524.299,474.784v13.601 M524.299,449.784v13.601 M524.299,424.884v13.602 M524.299,399.883v13.603 M524.299,374.983v13.6
		 M524.299,349.983v13.6 M524.299,325.083v13.601 M524.299,300.083v13.601 M524.299,275.183v13.601 M524.299,250.283v13.6
		 M524.299,225.283v13.6 M524.299,200.383v13.601 M524.299,175.383v13.601 M524.299,150.483v13.6 M524.299,125.483v13.6
		 M524.299,100.583v13.601 M524.299,75.583v13.601 M524.299,50.683v13.6 M524.299,25.683v13.699 M512.901,499.682v13.602
		 M512.901,474.784v13.601 M512.901,449.784v13.601 M512.901,424.884v13.602 M512.901,399.883v13.603 M512.901,374.983v13.6
		 M512.901,349.983v13.6 M512.901,325.083v13.601 M512.901,300.083v13.601 M512.901,275.183v13.601 M512.901,250.283v13.6
		 M512.901,225.283v13.6 M512.901,200.383v13.601 M512.901,175.383v13.601 M512.901,150.483v13.6 M512.901,125.483v13.6
		 M512.901,100.583v13.601 M512.901,75.583v13.601 M512.901,50.683v13.6 M512.901,25.683v13.699 M524.299,524.584H14
		 M524.299,513.284H14 M14,513.284v11.3 M524.299,513.284v11.3"/>
</g>
</svg>
